# xmcd CD database file
#
# Track frame offsets:
#	150
#	14340
#	27505
#	42764
#	56826
#	71031
#	84200
#	98724
#	109433
#	119719
#	133917
#	146999
#	158257
#	171160
#	183957
#	199209
#	212360
#	225281
#	238505
#	252912
#	267197
#	279062
#
# Disc length: 3899 seconds
#
# Revision: 0
# Processed by: cddbd v1.5.1PL0 Copyright (c) Steve Scherf et al.
# Submitted via: CDex 1.50
#
DISCID=330f3916
DTITLE=Nat King Cole - The Greatest Hits
DYEAR=1900
DGENRE=Jazz
TTITLE0=Sweet Lorraine
TTITLE1=It`s only a papermoon
TTITLE2=Embraceable you
TTITLE3=I just can`t see for looking
TTITLE4=I realize now
TTITLE5=Any old Time
TTITLE6=Please Consider me
TTITLE7=If you can`t smile ans say Yes, Please don`t cry an say no
TTITLE8=Candy
TTITLE9=I`d love to make love to you
TTITLE10=I`m a shy Guy
TTITLE11=Katusha
TTITLE12=It only Happens Once
TTITLE13=You`re Nobody `Till Somebody loves you
TTITLE14=Don`t blame me
TTITLE15=I`m thru with Love
TTITLE16=I tho`t you ought to know
TTITLE17=It only Happens once
TTITLE18=I`m in the mood for Love
TTITLE19=I don`t know why
TTITLE20=Everyone is sayin` Hello again
TTITLE21=Route 66
EXTD=
EXTT0=
EXTT1=
EXTT2=
EXTT3=
EXTT4=
EXTT5=
EXTT6=
EXTT7=
EXTT8=
EXTT9=
EXTT10=
EXTT11=
EXTT12=
EXTT13=
EXTT14=
EXTT15=
EXTT16=
EXTT17=
EXTT18=
EXTT19=
EXTT20=
EXTT21=
PLAYORDER=
